<?xml version="1.0" encoding="UTF-8" standalone="no"?>
<!DOCTYPE svg PUBLIC "-//W3C//DTD SVG 1.1//EN"
 "http://www.w3.org/Graphics/SVG/1.1/DTD/svg11.dtd">
<!-- Generated by graphviz version 2.43.0 (0)
 -->
<!-- Title: ArquitecturaCapas Pages: 1 -->
<svg width="952pt" height="664pt"
 viewBox="0.00 0.00 952.00 664.08" xmlns="http://www.w3.org/2000/svg" xmlns:xlink="http://www.w3.org/1999/xlink">
<g id="graph0" class="graph" transform="scale(1 1) rotate(0) translate(4 660.08)">
<title>ArquitecturaCapas</title>
<polygon fill="white" stroke="transparent" points="-4,4 -4,-660.08 948,-660.08 948,4 -4,4"/>
<text text-anchor="middle" x="472" y="-639.28" font-family="Helvetica,sans-Serif" font-size="16.00">El Paisa Digital — Arquitectura en capas (MVC + DAO)</text>
<g id="clust1" class="cluster">
<title>cluster_seguridad</title>
<polygon fill="white" stroke="#993c1d" stroke-dasharray="5,2" points="30,-456 30,-545 279,-545 279,-456 30,-456"/>
<text text-anchor="middle" x="154.5" y="-528.2" font-family="Helvetica,sans-Serif" font-size="16.00" fill="#993c1d">Spring Security (transversal)</text>
</g>
<g id="clust2" class="cluster">
<title>cluster_mvc</title>
<polygon fill="white" stroke="#185fa5" stroke-dasharray="5,2" points="8,-225.5 8,-427 284,-427 284,-225.5 8,-225.5"/>
<text text-anchor="middle" x="146" y="-410.2" font-family="Helvetica,sans-Serif" font-size="16.00" fill="#185fa5">Capa de presentación (MVC)</text>
</g>
<g id="clust3" class="cluster">
<title>cluster_negocio</title>
<polygon fill="white" stroke="#3b6d11" stroke-dasharray="5,2" points="292,-107.5 292,-309 568,-309 568,-107.5 292,-107.5"/>
<text text-anchor="middle" x="430" y="-292.2" font-family="Helvetica,sans-Serif" font-size="16.00" fill="#3b6d11">Capa de negocio</text>
</g>
<g id="clust4" class="cluster">
<title>cluster_datos</title>
<polygon fill="white" stroke="#534ab7" stroke-dasharray="5,2" points="576,-8 576,-191 850,-191 850,-8 576,-8"/>
<text text-anchor="middle" x="713" y="-174.2" font-family="Helvetica,sans-Serif" font-size="16.00" fill="#534ab7">Capa de acceso a datos (DAO)</text>
</g>
<!-- Cliente -->
<g id="node1" class="node">
<title>Cliente</title>
<ellipse fill="#f1efe8" stroke="#888780" stroke-width="0.8" cx="146" cy="-606.04" rx="58.88" ry="24.08"/>
<text text-anchor="middle" x="146" y="-609.44" font-family="Helvetica,sans-Serif" font-size="12.00">Navegador</text>
<text text-anchor="middle" x="146" y="-596.44" font-family="Helvetica,sans-Serif" font-size="12.00">(cliente)</text>
</g>
<!-- Security -->
<g id="node2" class="node">
<title>Security</title>
<path fill="#faece7" stroke="#d85a30" stroke-width="0.8" d="M220.5,-511C220.5,-511 71.5,-511 71.5,-511 65.5,-511 59.5,-505 59.5,-499 59.5,-499 59.5,-476 59.5,-476 59.5,-470 65.5,-464 71.5,-464 71.5,-464 220.5,-464 220.5,-464 226.5,-464 232.5,-470 232.5,-476 232.5,-476 232.5,-499 232.5,-499 232.5,-505 226.5,-511 220.5,-511"/>
<text text-anchor="middle" x="146" y="-497.4" font-family="Helvetica,sans-Serif" font-size="12.00">SecurityConfig</text>
<text text-anchor="middle" x="146" y="-484.4" font-family="Helvetica,sans-Serif" font-size="12.00">BCrypt + RBAC por rol</text>
<text text-anchor="middle" x="146" y="-471.4" font-family="Helvetica,sans-Serif" font-size="12.00">(ADMIN / CAJERO / MOZO)</text>
</g>
<!-- Cliente&#45;&gt;Security -->
<g id="edge1" class="edge">
<title>Cliente&#45;&gt;Security</title>
<path fill="none" stroke="#5f5e5a" d="M146,-581.74C146,-564.48 146,-540.72 146,-521.5"/>
<polygon fill="#5f5e5a" stroke="#5f5e5a" points="149.5,-521.37 146,-511.37 142.5,-521.37 149.5,-521.37"/>
<text text-anchor="middle" x="183" y="-556" font-family="Helvetica,sans-Serif" font-size="10.00"> &#160;petición HTTP</text>
</g>
<!-- Controller -->
<g id="node3" class="node">
<title>Controller</title>
<path fill="#e6f1fb" stroke="#378add" stroke-width="0.8" d="M263.5,-393C263.5,-393 28.5,-393 28.5,-393 22.5,-393 16.5,-387 16.5,-381 16.5,-381 16.5,-358 16.5,-358 16.5,-352 22.5,-346 28.5,-346 28.5,-346 263.5,-346 263.5,-346 269.5,-346 275.5,-352 275.5,-358 275.5,-358 275.5,-381 275.5,-381 275.5,-387 269.5,-393 263.5,-393"/>
<text text-anchor="middle" x="146" y="-379.4" font-family="Helvetica,sans-Serif" font-size="12.00">Controller</text>
<text text-anchor="middle" x="146" y="-366.4" font-family="Helvetica,sans-Serif" font-size="12.00">ProductoController, VentaController,</text>
<text text-anchor="middle" x="146" y="-353.4" font-family="Helvetica,sans-Serif" font-size="12.00">ReservaController, AsistenciaController...</text>
</g>
<!-- Security&#45;&gt;Controller -->
<g id="edge2" class="edge">
<title>Security&#45;&gt;Controller</title>
<path fill="none" stroke="#5f5e5a" d="M146,-463.86C146,-446.61 146,-422.62 146,-403.28"/>
<polygon fill="#5f5e5a" stroke="#5f5e5a" points="149.5,-403.08 146,-393.08 142.5,-403.08 149.5,-403.08"/>
<text text-anchor="middle" x="175" y="-438" font-family="Helvetica,sans-Serif" font-size="10.00"> &#160;autorizada</text>
</g>
<!-- View -->
<g id="node4" class="node">
<title>View</title>
<path fill="#e6f1fb" stroke="#378add" stroke-width="0.8" d="M231,-269.5C231,-269.5 61,-269.5 61,-269.5 55,-269.5 49,-263.5 49,-257.5 49,-257.5 49,-245.5 49,-245.5 49,-239.5 55,-233.5 61,-233.5 61,-233.5 231,-233.5 231,-233.5 237,-233.5 243,-239.5 243,-245.5 243,-245.5 243,-257.5 243,-257.5 243,-263.5 237,-269.5 231,-269.5"/>
<text text-anchor="middle" x="146" y="-254.9" font-family="Helvetica,sans-Serif" font-size="12.00">View</text>
<text text-anchor="middle" x="146" y="-241.9" font-family="Helvetica,sans-Serif" font-size="12.00">Thymeleaf (templates/*.html)</text>
</g>
<!-- Controller&#45;&gt;View -->
<g id="edge4" class="edge">
<title>Controller&#45;&gt;View</title>
<path fill="none" stroke="#5f5e5a" d="M146,-335.86C146,-314.4 146,-287.18 146,-269.8"/>
<polygon fill="#5f5e5a" stroke="#5f5e5a" points="142.5,-335.86 146,-345.86 149.5,-335.86 142.5,-335.86"/>
<text text-anchor="middle" x="172" y="-320" font-family="Helvetica,sans-Serif" font-size="10.00"> &#160;renderiza</text>
</g>
<!-- Service -->
<g id="node5" class="node">
<title>Service</title>
<path fill="#eaf3de" stroke="#639922" stroke-width="0.8" d="M547.5,-275C547.5,-275 312.5,-275 312.5,-275 306.5,-275 300.5,-269 300.5,-263 300.5,-263 300.5,-240 300.5,-240 300.5,-234 306.5,-228 312.5,-228 312.5,-228 547.5,-228 547.5,-228 553.5,-228 559.5,-234 559.5,-240 559.5,-240 559.5,-263 559.5,-263 559.5,-269 553.5,-275 547.5,-275"/>
<text text-anchor="middle" x="430" y="-261.4" font-family="Helvetica,sans-Serif" font-size="12.00">Service</text>
<text text-anchor="middle" x="430" y="-248.4" font-family="Helvetica,sans-Serif" font-size="12.00">VentaServiceImpl, ReservaServiceImpl...</text>
<text text-anchor="middle" x="430" y="-235.4" font-family="Helvetica,sans-Serif" font-size="12.00">(reglas de negocio + @Transactional)</text>
</g>
<!-- Controller&#45;&gt;Service -->
<g id="edge3" class="edge">
<title>Controller&#45;&gt;Service</title>
<path fill="none" stroke="#5f5e5a" d="M201.09,-346C248.07,-326.81 315.67,-299.2 365.23,-278.96"/>
<polygon fill="#5f5e5a" stroke="#5f5e5a" points="366.64,-282.16 374.57,-275.14 363.99,-275.68 366.64,-282.16"/>
<text text-anchor="middle" x="290.5" y="-320" font-family="Helvetica,sans-Serif" font-size="10.00"> &#160;invoca</text>
</g>
<!-- Validacion -->
<g id="node6" class="node">
<title>Validacion</title>
<path fill="#eaf3de" stroke="#639922" stroke-width="0.8" d="M509,-151.5C509,-151.5 351,-151.5 351,-151.5 345,-151.5 339,-145.5 339,-139.5 339,-139.5 339,-127.5 339,-127.5 339,-121.5 345,-115.5 351,-115.5 351,-115.5 509,-115.5 509,-115.5 515,-115.5 521,-121.5 521,-127.5 521,-127.5 521,-139.5 521,-139.5 521,-145.5 515,-151.5 509,-151.5"/>
<text text-anchor="middle" x="430" y="-136.9" font-family="Helvetica,sans-Serif" font-size="12.00">ValidacionUtil</text>
<text text-anchor="middle" x="430" y="-123.9" font-family="Helvetica,sans-Serif" font-size="12.00">(Guava + Commons Lang3)</text>
</g>
<!-- Service&#45;&gt;Validacion -->
<g id="edge5" class="edge">
<title>Service&#45;&gt;Validacion</title>
<path fill="none" stroke="#5f5e5a" d="M430,-227.86C430,-208.97 430,-181.99 430,-161.88"/>
<polygon fill="#5f5e5a" stroke="#5f5e5a" points="433.5,-161.8 430,-151.8 426.5,-161.8 433.5,-161.8"/>
<text text-anchor="middle" x="448.5" y="-202" font-family="Helvetica,sans-Serif" font-size="10.00"> &#160;valida</text>
</g>
<!-- Dao -->
<g id="node7" class="node">
<title>Dao</title>
<path fill="#eeedfe" stroke="#7f77dd" stroke-width="0.8" d="M830,-157C830,-157 596,-157 596,-157 590,-157 584,-151 584,-145 584,-145 584,-122 584,-122 584,-116 590,-110 596,-110 596,-110 830,-110 830,-110 836,-110 842,-116 842,-122 842,-122 842,-145 842,-145 842,-151 836,-157 830,-157"/>
<text text-anchor="middle" x="713" y="-143.4" font-family="Helvetica,sans-Serif" font-size="12.00">DAO</text>
<text text-anchor="middle" x="713" y="-130.4" font-family="Helvetica,sans-Serif" font-size="12.00">GenericDao&lt;T,ID&gt; + implementaciones</text>
<text text-anchor="middle" x="713" y="-117.4" font-family="Helvetica,sans-Serif" font-size="12.00">(EntityManager / JPQL)</text>
</g>
<!-- Service&#45;&gt;Dao -->
<g id="edge6" class="edge">
<title>Service&#45;&gt;Dao</title>
<path fill="none" stroke="#5f5e5a" d="M484.9,-228C531.71,-208.81 599.07,-181.2 648.46,-160.96"/>
<polygon fill="#5f5e5a" stroke="#5f5e5a" points="649.84,-164.17 657.77,-157.14 647.19,-157.69 649.84,-164.17"/>
<text text-anchor="middle" x="580.5" y="-202" font-family="Helvetica,sans-Serif" font-size="10.00"> &#160;usa (DIP)</text>
</g>
<!-- Model -->
<g id="node8" class="node">
<title>Model</title>
<path fill="#eeedfe" stroke="#7f77dd" stroke-width="0.8" d="M820.5,-63C820.5,-63 605.5,-63 605.5,-63 599.5,-63 593.5,-57 593.5,-51 593.5,-51 593.5,-28 593.5,-28 593.5,-22 599.5,-16 605.5,-16 605.5,-16 820.5,-16 820.5,-16 826.5,-16 832.5,-22 832.5,-28 832.5,-28 832.5,-51 832.5,-51 832.5,-57 826.5,-63 820.5,-63"/>
<text text-anchor="middle" x="713" y="-49.4" font-family="Helvetica,sans-Serif" font-size="12.00">Model</text>
<text text-anchor="middle" x="713" y="-36.4" font-family="Helvetica,sans-Serif" font-size="12.00">Entidades JPA</text>
<text text-anchor="middle" x="713" y="-23.4" font-family="Helvetica,sans-Serif" font-size="12.00">(Producto, Venta, Insumo, Reserva...)</text>
</g>
<!-- Dao&#45;&gt;Model -->
<g id="edge7" class="edge">
<title>Dao&#45;&gt;Model</title>
<path fill="none" stroke="#5f5e5a" d="M713,-109.76C713,-98.81 713,-85.48 713,-73.45"/>
<polygon fill="#5f5e5a" stroke="#5f5e5a" points="716.5,-73.3 713,-63.3 709.5,-73.3 716.5,-73.3"/>
<text text-anchor="middle" x="736" y="-84" font-family="Helvetica,sans-Serif" font-size="10.00"> &#160;persiste</text>
</g>
<!-- BD -->
<g id="node9" class="node">
<title>BD</title>
<path fill="#f1efe8" stroke="#888780" stroke-width="0.8" d="M944,-54.23C944,-56.03 924.73,-57.5 901,-57.5 877.27,-57.5 858,-56.03 858,-54.23 858,-54.23 858,-24.77 858,-24.77 858,-22.97 877.27,-21.5 901,-21.5 924.73,-21.5 944,-22.97 944,-24.77 944,-24.77 944,-54.23 944,-54.23"/>
<path fill="none" stroke="#888780" stroke-width="0.8" d="M944,-54.23C944,-52.42 924.73,-50.95 901,-50.95 877.27,-50.95 858,-52.42 858,-54.23"/>
<text text-anchor="middle" x="901" y="-36.4" font-family="Helvetica,sans-Serif" font-size="12.00">MySQL / H2</text>
</g>
<!-- Dao&#45;&gt;BD -->
<g id="edge8" class="edge">
<title>Dao&#45;&gt;BD</title>
<path fill="none" stroke="#5f5e5a" d="M758.99,-109.99C789.3,-95.16 828.71,-75.87 858.33,-61.38"/>
<polygon fill="#5f5e5a" stroke="#5f5e5a" points="860.13,-64.4 867.57,-56.86 857.05,-58.11 860.13,-64.4"/>
<text text-anchor="middle" x="851" y="-84" font-family="Helvetica,sans-Serif" font-size="10.00"> &#160;EntityManager</text>
</g>
</g>
</svg>
