<?xml version="1.0" encoding="UTF-8" standalone="no"?>
<!DOCTYPE svg PUBLIC "-//W3C//DTD SVG 1.1//EN"
 "http://www.w3.org/Graphics/SVG/1.1/DTD/svg11.dtd">
<!-- Generated by graphviz version 2.43.0 (0)
 -->
<!-- Title: PatronDaoSolid Pages: 1 -->
<svg width="704pt" height="293pt"
 viewBox="0.00 0.00 703.50 293.00" xmlns="http://www.w3.org/2000/svg" xmlns:xlink="http://www.w3.org/1999/xlink">
<g id="graph0" class="graph" transform="scale(1 1) rotate(0) translate(4 289)">
<title>PatronDaoSolid</title>
<polygon fill="white" stroke="transparent" points="-4,4 -4,-289 699.5,-289 699.5,4 -4,4"/>
<text text-anchor="middle" x="347.75" y="-269" font-family="Helvetica,sans-Serif" font-size="15.00">Patrón DAO genérico — aplicación de OCP, LSP e ISP</text>
<!-- GenericDao -->
<g id="node1" class="node">
<title>GenericDao</title>
<path fill="#eeedfe" stroke="#7f77dd" stroke-width="0.8" d="M428,-260C428,-260 328,-260 328,-260 322,-260 316,-254 316,-248 316,-248 316,-192 316,-192 316,-186 322,-180 328,-180 328,-180 428,-180 428,-180 434,-180 440,-186 440,-192 440,-192 440,-248 440,-248 440,-254 434,-260 428,-260"/>
<text text-anchor="middle" x="378" y="-247.2" font-family="Helvetica,sans-Serif" font-size="11.00">«interface»</text>
<text text-anchor="middle" x="378" y="-235.2" font-family="Helvetica,sans-Serif" font-size="11.00">GenericDao&lt;T, ID&gt;</text>
<text text-anchor="middle" x="378" y="-223.2" font-family="Helvetica,sans-Serif" font-size="11.00">+ guardar()</text>
<text text-anchor="middle" x="378" y="-211.2" font-family="Helvetica,sans-Serif" font-size="11.00">+ buscarPorId()</text>
<text text-anchor="middle" x="378" y="-199.2" font-family="Helvetica,sans-Serif" font-size="11.00">+ listarTodos()</text>
<text text-anchor="middle" x="378" y="-187.2" font-family="Helvetica,sans-Serif" font-size="11.00">+ eliminar()</text>
</g>
<!-- GenericDaoImpl -->
<g id="node2" class="node">
<title>GenericDaoImpl</title>
<path fill="#eeedfe" stroke="#7f77dd" stroke-width="0.8" d="M570.5,-134C570.5,-134 447.5,-134 447.5,-134 441.5,-134 435.5,-128 435.5,-122 435.5,-122 435.5,-102 435.5,-102 435.5,-96 441.5,-90 447.5,-90 447.5,-90 570.5,-90 570.5,-90 576.5,-90 582.5,-96 582.5,-102 582.5,-102 582.5,-122 582.5,-122 582.5,-128 576.5,-134 570.5,-134"/>
<text text-anchor="middle" x="509" y="-121.2" font-family="Helvetica,sans-Serif" font-size="11.00">«abstract»</text>
<text text-anchor="middle" x="509" y="-109.2" font-family="Helvetica,sans-Serif" font-size="11.00">GenericDaoImpl&lt;T, ID&gt;</text>
<text text-anchor="middle" x="509" y="-97.2" font-family="Helvetica,sans-Serif" font-size="11.00">(EntityManager)</text>
</g>
<!-- GenericDaoImpl&#45;&gt;GenericDao -->
<g id="edge1" class="edge">
<title>GenericDaoImpl&#45;&gt;GenericDao</title>
<path fill="none" stroke="#5f5e5a" stroke-dasharray="5,2" d="M482.81,-134.2C468.95,-145.41 451.36,-159.64 434.57,-173.23"/>
<polygon fill="none" stroke="#5f5e5a" points="431.99,-170.81 426.41,-179.83 436.39,-176.26 431.99,-170.81"/>
<text text-anchor="middle" x="487.5" y="-154.8" font-family="Helvetica,sans-Serif" font-size="9.00">implementa</text>
</g>
<!-- ProductoDao -->
<g id="node3" class="node">
<title>ProductoDao</title>
<path fill="#e1f5ee" stroke="#1d9e75" stroke-width="0.8" d="M211.5,-130C211.5,-130 148.5,-130 148.5,-130 142.5,-130 136.5,-124 136.5,-118 136.5,-118 136.5,-106 136.5,-106 136.5,-100 142.5,-94 148.5,-94 148.5,-94 211.5,-94 211.5,-94 217.5,-94 223.5,-100 223.5,-106 223.5,-106 223.5,-118 223.5,-118 223.5,-124 217.5,-130 211.5,-130"/>
<text text-anchor="middle" x="180" y="-115.2" font-family="Helvetica,sans-Serif" font-size="11.00">«interface»</text>
<text text-anchor="middle" x="180" y="-103.2" font-family="Helvetica,sans-Serif" font-size="11.00">ProductoDao</text>
</g>
<!-- ProductoDao&#45;&gt;GenericDao -->
<g id="edge2" class="edge">
<title>ProductoDao&#45;&gt;GenericDao</title>
<path fill="none" stroke="#5f5e5a" d="M201.98,-130.02C215.43,-140.02 233.22,-152.5 250,-162 267.84,-172.09 287.8,-181.72 306.56,-190.09"/>
<polygon fill="none" stroke="#5f5e5a" points="305.39,-193.39 315.95,-194.22 308.21,-186.99 305.39,-193.39"/>
<text text-anchor="middle" x="282" y="-154.8" font-family="Helvetica,sans-Serif" font-size="9.00">extiende (ISP)</text>
</g>
<!-- InsumoDao -->
<g id="node4" class="node">
<title>InsumoDao</title>
<path fill="#e1f5ee" stroke="#1d9e75" stroke-width="0.8" d="M405.5,-130C405.5,-130 350.5,-130 350.5,-130 344.5,-130 338.5,-124 338.5,-118 338.5,-118 338.5,-106 338.5,-106 338.5,-100 344.5,-94 350.5,-94 350.5,-94 405.5,-94 405.5,-94 411.5,-94 417.5,-100 417.5,-106 417.5,-106 417.5,-118 417.5,-118 417.5,-124 411.5,-130 405.5,-130"/>
<text text-anchor="middle" x="378" y="-115.2" font-family="Helvetica,sans-Serif" font-size="11.00">«interface»</text>
<text text-anchor="middle" x="378" y="-103.2" font-family="Helvetica,sans-Serif" font-size="11.00">InsumoDao</text>
</g>
<!-- InsumoDao&#45;&gt;GenericDao -->
<g id="edge3" class="edge">
<title>InsumoDao&#45;&gt;GenericDao</title>
<path fill="none" stroke="#5f5e5a" d="M378,-130.03C378,-140.77 378,-155.23 378,-169.38"/>
<polygon fill="none" stroke="#5f5e5a" points="374.5,-169.56 378,-179.56 381.5,-169.56 374.5,-169.56"/>
</g>
<!-- VentaDao -->
<g id="node5" class="node">
<title>VentaDao</title>
<path fill="#e1f5ee" stroke="#1d9e75" stroke-width="0.8" d="M308.5,-130C308.5,-130 253.5,-130 253.5,-130 247.5,-130 241.5,-124 241.5,-118 241.5,-118 241.5,-106 241.5,-106 241.5,-100 247.5,-94 253.5,-94 253.5,-94 308.5,-94 308.5,-94 314.5,-94 320.5,-100 320.5,-106 320.5,-106 320.5,-118 320.5,-118 320.5,-124 314.5,-130 308.5,-130"/>
<text text-anchor="middle" x="281" y="-115.2" font-family="Helvetica,sans-Serif" font-size="11.00">«interface»</text>
<text text-anchor="middle" x="281" y="-103.2" font-family="Helvetica,sans-Serif" font-size="11.00">VentaDao</text>
</g>
<!-- VentaDao&#45;&gt;GenericDao -->
<g id="edge4" class="edge">
<title>VentaDao&#45;&gt;GenericDao</title>
<path fill="none" stroke="#5f5e5a" d="M296.58,-130.03C306.98,-141.39 321.2,-156.93 334.85,-171.85"/>
<polygon fill="none" stroke="#5f5e5a" points="332.58,-174.55 341.91,-179.56 337.74,-169.82 332.58,-174.55"/>
</g>
<!-- ReservaDao -->
<g id="node6" class="node">
<title>ReservaDao</title>
<path fill="#e1f5ee" stroke="#1d9e75" stroke-width="0.8" d="M671.5,-130C671.5,-130 612.5,-130 612.5,-130 606.5,-130 600.5,-124 600.5,-118 600.5,-118 600.5,-106 600.5,-106 600.5,-100 606.5,-94 612.5,-94 612.5,-94 671.5,-94 671.5,-94 677.5,-94 683.5,-100 683.5,-106 683.5,-106 683.5,-118 683.5,-118 683.5,-124 677.5,-130 671.5,-130"/>
<text text-anchor="middle" x="642" y="-115.2" font-family="Helvetica,sans-Serif" font-size="11.00">«interface»</text>
<text text-anchor="middle" x="642" y="-103.2" font-family="Helvetica,sans-Serif" font-size="11.00">ReservaDao</text>
</g>
<!-- ReservaDao&#45;&gt;GenericDao -->
<g id="edge5" class="edge">
<title>ReservaDao&#45;&gt;GenericDao</title>
<path fill="none" stroke="#5f5e5a" d="M601.64,-130.03C598.38,-131.38 595.14,-132.72 592,-134 544.79,-153.29 491.5,-174.46 449.9,-190.85"/>
<polygon fill="none" stroke="#5f5e5a" points="448.42,-187.67 440.4,-194.59 450.99,-194.18 448.42,-187.67"/>
</g>
<!-- ProductoDaoImpl -->
<g id="node7" class="node">
<title>ProductoDaoImpl</title>
<path fill="#faeeda" stroke="#ba7517" stroke-width="0.8" d="M328,-40C328,-40 242,-40 242,-40 236,-40 230,-34 230,-28 230,-28 230,-16 230,-16 230,-10 236,-4 242,-4 242,-4 328,-4 328,-4 334,-4 340,-10 340,-16 340,-16 340,-28 340,-28 340,-34 334,-40 328,-40"/>
<text text-anchor="middle" x="285" y="-19.2" font-family="Helvetica,sans-Serif" font-size="11.00">ProductoDaoImpl</text>
</g>
<!-- ProductoDaoImpl&#45;&gt;GenericDaoImpl -->
<g id="edge6" class="edge">
<title>ProductoDaoImpl&#45;&gt;GenericDaoImpl</title>
<path fill="none" stroke="#5f5e5a" d="M318.72,-40.21C338.84,-50.15 365.06,-62.52 389,-72 401.95,-77.13 415.86,-82.12 429.47,-86.72"/>
<polygon fill="none" stroke="#5f5e5a" points="428.71,-90.15 439.3,-89.99 430.92,-83.51 428.71,-90.15"/>
<text text-anchor="middle" x="419.5" y="-64.8" font-family="Helvetica,sans-Serif" font-size="9.00">hereda (OCP)</text>
</g>
<!-- ProductoDaoImpl&#45;&gt;ProductoDao -->
<g id="edge10" class="edge">
<title>ProductoDaoImpl&#45;&gt;ProductoDao</title>
<path fill="none" stroke="#5f5e5a" stroke-dasharray="5,2" d="M266.01,-40C255.26,-49.54 241.5,-61.57 229,-72 223.03,-76.98 216.58,-82.22 210.37,-87.19"/>
<polygon fill="none" stroke="#5f5e5a" points="207.78,-84.78 202.13,-93.74 212.13,-90.26 207.78,-84.78"/>
</g>
<!-- InsumoDaoImpl -->
<g id="node8" class="node">
<title>InsumoDaoImpl</title>
<path fill="#faeeda" stroke="#ba7517" stroke-width="0.8" d="M558.5,-40C558.5,-40 481.5,-40 481.5,-40 475.5,-40 469.5,-34 469.5,-28 469.5,-28 469.5,-16 469.5,-16 469.5,-10 475.5,-4 481.5,-4 481.5,-4 558.5,-4 558.5,-4 564.5,-4 570.5,-10 570.5,-16 570.5,-16 570.5,-28 570.5,-28 570.5,-34 564.5,-40 558.5,-40"/>
<text text-anchor="middle" x="520" y="-19.2" font-family="Helvetica,sans-Serif" font-size="11.00">InsumoDaoImpl</text>
</g>
<!-- InsumoDaoImpl&#45;&gt;GenericDaoImpl -->
<g id="edge7" class="edge">
<title>InsumoDaoImpl&#45;&gt;GenericDaoImpl</title>
<path fill="none" stroke="#5f5e5a" d="M517.83,-40.39C516.42,-51.61 514.56,-66.54 512.9,-79.77"/>
<polygon fill="none" stroke="#5f5e5a" points="509.4,-79.57 511.63,-89.93 516.35,-80.44 509.4,-79.57"/>
</g>
<!-- InsumoDaoImpl&#45;&gt;InsumoDao -->
<g id="edge11" class="edge">
<title>InsumoDaoImpl&#45;&gt;InsumoDao</title>
<path fill="none" stroke="#5f5e5a" stroke-dasharray="5,2" d="M492.28,-40.18C470,-53.99 438.52,-73.5 414.24,-88.54"/>
<polygon fill="none" stroke="#5f5e5a" points="412.3,-85.62 405.65,-93.87 415.99,-91.57 412.3,-85.62"/>
</g>
<!-- VentaDaoImpl -->
<g id="node9" class="node">
<title>VentaDaoImpl</title>
<path fill="#faeeda" stroke="#ba7517" stroke-width="0.8" d="M439.5,-40C439.5,-40 370.5,-40 370.5,-40 364.5,-40 358.5,-34 358.5,-28 358.5,-28 358.5,-16 358.5,-16 358.5,-10 364.5,-4 370.5,-4 370.5,-4 439.5,-4 439.5,-4 445.5,-4 451.5,-10 451.5,-16 451.5,-16 451.5,-28 451.5,-28 451.5,-34 445.5,-40 439.5,-40"/>
<text text-anchor="middle" x="405" y="-19.2" font-family="Helvetica,sans-Serif" font-size="11.00">VentaDaoImpl</text>
</g>
<!-- VentaDaoImpl&#45;&gt;GenericDaoImpl -->
<g id="edge8" class="edge">
<title>VentaDaoImpl&#45;&gt;GenericDaoImpl</title>
<path fill="none" stroke="#5f5e5a" d="M425.55,-40.39C439.99,-52.61 459.63,-69.23 476.23,-83.27"/>
<polygon fill="none" stroke="#5f5e5a" points="474.2,-86.14 484.09,-89.93 478.72,-80.79 474.2,-86.14"/>
</g>
<!-- VentaDaoImpl&#45;&gt;VentaDao -->
<g id="edge12" class="edge">
<title>VentaDaoImpl&#45;&gt;VentaDao</title>
<path fill="none" stroke="#5f5e5a" stroke-dasharray="5,2" d="M360.49,-40.05C347.75,-46 334.27,-53.38 323,-62 314.19,-68.74 305.91,-77.59 299.07,-85.92"/>
<polygon fill="none" stroke="#5f5e5a" points="296.17,-83.95 292.75,-93.97 301.68,-88.27 296.17,-83.95"/>
</g>
<!-- ReservaDaoImpl -->
<g id="node10" class="node">
<title>ReservaDaoImpl</title>
<path fill="#faeeda" stroke="#ba7517" stroke-width="0.8" d="M683.5,-40C683.5,-40 600.5,-40 600.5,-40 594.5,-40 588.5,-34 588.5,-28 588.5,-28 588.5,-16 588.5,-16 588.5,-10 594.5,-4 600.5,-4 600.5,-4 683.5,-4 683.5,-4 689.5,-4 695.5,-10 695.5,-16 695.5,-16 695.5,-28 695.5,-28 695.5,-34 689.5,-40 683.5,-40"/>
<text text-anchor="middle" x="642" y="-19.2" font-family="Helvetica,sans-Serif" font-size="11.00">ReservaDaoImpl</text>
</g>
<!-- ReservaDaoImpl&#45;&gt;GenericDaoImpl -->
<g id="edge9" class="edge">
<title>ReservaDaoImpl&#45;&gt;GenericDaoImpl</title>
<path fill="none" stroke="#5f5e5a" d="M616.04,-40.18C597.09,-52.72 571.03,-69.96 549.37,-84.29"/>
<polygon fill="none" stroke="#5f5e5a" points="547.41,-81.39 541,-89.83 551.27,-87.23 547.41,-81.39"/>
</g>
<!-- ReservaDaoImpl&#45;&gt;ReservaDao -->
<g id="edge13" class="edge">
<title>ReservaDaoImpl&#45;&gt;ReservaDao</title>
<path fill="none" stroke="#5f5e5a" stroke-dasharray="5,2" d="M642,-40.39C642,-52.76 642,-69.63 642,-83.78"/>
<polygon fill="none" stroke="#5f5e5a" points="638.5,-83.95 642,-93.95 645.5,-83.95 638.5,-83.95"/>
</g>
<!-- VentaService -->
<g id="node11" class="node">
<title>VentaService</title>
<path fill="#faece7" stroke="#d85a30" stroke-width="0.8" d="M200,-44C200,-44 12,-44 12,-44 6,-44 0,-38 0,-32 0,-32 0,-12 0,-12 0,-6 6,0 12,0 12,0 200,0 200,0 206,0 212,-6 212,-12 212,-12 212,-32 212,-32 212,-38 206,-44 200,-44"/>
<text text-anchor="middle" x="106" y="-31.2" font-family="Helvetica,sans-Serif" font-size="11.00">VentaServiceImpl</text>
<text text-anchor="middle" x="106" y="-19.2" font-family="Helvetica,sans-Serif" font-size="11.00">(depende de las interfaces,</text>
<text text-anchor="middle" x="106" y="-7.2" font-family="Helvetica,sans-Serif" font-size="11.00">no de las implementaciones — DIP)</text>
</g>
<!-- VentaService&#45;&gt;ProductoDao -->
<g id="edge15" class="edge">
<title>VentaService&#45;&gt;ProductoDao</title>
<path fill="none" stroke="#5f5e5a" d="M123.91,-44.3C134.47,-56.86 147.88,-72.8 158.94,-85.96"/>
<polygon fill="#5f5e5a" stroke="#5f5e5a" points="156.36,-88.33 165.48,-93.73 161.72,-83.82 156.36,-88.33"/>
</g>
<!-- VentaService&#45;&gt;InsumoDao -->
<g id="edge16" class="edge">
<title>VentaService&#45;&gt;InsumoDao</title>
<path fill="none" stroke="#5f5e5a" d="M188.77,-44.01C209.21,-49.54 230.98,-55.72 251,-62 286.15,-73.01 294.72,-76.52 329,-90 329.1,-90.04 329.2,-90.08 329.3,-90.12"/>
<polygon fill="#5f5e5a" stroke="#5f5e5a" points="328.19,-93.44 338.77,-93.94 330.81,-86.95 328.19,-93.44"/>
</g>
<!-- VentaService&#45;&gt;VentaDao -->
<g id="edge14" class="edge">
<title>VentaService&#45;&gt;VentaDao</title>
<path fill="none" stroke="#5f5e5a" d="M147.92,-44.08C175.17,-57.78 210.61,-75.6 238.07,-89.41"/>
<polygon fill="#5f5e5a" stroke="#5f5e5a" points="236.54,-92.56 247.05,-93.93 239.69,-86.31 236.54,-92.56"/>
<text text-anchor="middle" x="223" y="-64.8" font-family="Helvetica,sans-Serif" font-size="9.00"> &#160;usa (DIP)</text>
</g>
</g>
</svg>
