<?xml version="1.0" encoding="UTF-8" standalone="no"?>
<!DOCTYPE svg PUBLIC "-//W3C//DTD SVG 1.1//EN"
 "http://www.w3.org/Graphics/SVG/1.1/DTD/svg11.dtd">
<!-- Generated by graphviz version 2.43.0 (0)
 -->
<!-- Title: ModeloDatos Pages: 1 -->
<svg width="1381pt" height="202pt"
 viewBox="0.00 0.00 1381.00 202.00" xmlns="http://www.w3.org/2000/svg" xmlns:xlink="http://www.w3.org/1999/xlink">
<g id="graph0" class="graph" transform="scale(1 1) rotate(0) translate(4 198)">
<title>ModeloDatos</title>
<polygon fill="white" stroke="transparent" points="-4,4 -4,-198 1377,-198 1377,4 -4,4"/>
<text text-anchor="middle" x="686.5" y="-178" font-family="Helvetica,sans-Serif" font-size="15.00">El Paisa Digital — Modelo de datos (entidades JPA)</text>
<!-- Usuario -->
<g id="node1" class="node">
<title>Usuario</title>
<path fill="#e6f1fb" stroke="#378add" stroke-width="0.8" d="M12,-66.5C12,-66.5 149,-66.5 149,-66.5 155,-66.5 161,-72.5 161,-78.5 161,-78.5 161,-106.5 161,-106.5 161,-112.5 155,-118.5 149,-118.5 149,-118.5 12,-118.5 12,-118.5 6,-118.5 0,-112.5 0,-106.5 0,-106.5 0,-78.5 0,-78.5 0,-72.5 6,-66.5 12,-66.5"/>
<text text-anchor="middle" x="27" y="-90" font-family="Helvetica,sans-Serif" font-size="10.00">Usuario</text>
<polyline fill="none" stroke="#378add" stroke-width="0.8" points="54,-66.5 54,-118.5 "/>
<text text-anchor="start" x="62" y="-106.5" font-family="Helvetica,sans-Serif" font-size="10.00">idUsuario</text>
<text text-anchor="start" x="62" y="-95.5" font-family="Helvetica,sans-Serif" font-size="10.00">username</text>
<text text-anchor="start" x="62" y="-84.5" font-family="Helvetica,sans-Serif" font-size="10.00">password (BCrypt)</text>
<text text-anchor="start" x="62" y="-73.5" font-family="Helvetica,sans-Serif" font-size="10.00">activo</text>
</g>
<!-- Rol -->
<g id="node2" class="node">
<title>Rol</title>
<path fill="#e6f1fb" stroke="#378add" stroke-width="0.8" d="M231,-132.5C231,-132.5 411,-132.5 411,-132.5 417,-132.5 423,-138.5 423,-144.5 423,-144.5 423,-156.5 423,-156.5 423,-162.5 417,-168.5 411,-168.5 411,-168.5 231,-168.5 231,-168.5 225,-168.5 219,-162.5 219,-156.5 219,-156.5 219,-144.5 219,-144.5 219,-138.5 225,-132.5 231,-132.5"/>
<text text-anchor="middle" x="235" y="-148" font-family="Helvetica,sans-Serif" font-size="10.00">Rol</text>
<polyline fill="none" stroke="#378add" stroke-width="0.8" points="251,-132.5 251,-168.5 "/>
<text text-anchor="start" x="259" y="-153.5" font-family="Helvetica,sans-Serif" font-size="10.00">idRol</text>
<text text-anchor="start" x="259" y="-142.5" font-family="Helvetica,sans-Serif" font-size="10.00">nombre (ADMIN/CAJERO/MOZO)</text>
</g>
<!-- Usuario&#45;&gt;Rol -->
<g id="edge1" class="edge">
<title>Usuario&#45;&gt;Rol</title>
<path fill="none" stroke="#5f5e5a" d="M161.25,-111.89C188.6,-118.55 219.08,-125.96 245.97,-132.5"/>
<text text-anchor="middle" x="190" y="-124.3" font-family="Helvetica,sans-Serif" font-size="9.00"> &#160;N:1</text>
</g>
<!-- Sede -->
<g id="node3" class="node">
<title>Sede</title>
<path fill="#e6f1fb" stroke="#378add" stroke-width="0.8" d="M282,-72C282,-72 360,-72 360,-72 366,-72 372,-78 372,-84 372,-84 372,-101 372,-101 372,-107 366,-113 360,-113 360,-113 282,-113 282,-113 276,-113 270,-107 270,-101 270,-101 270,-84 270,-84 270,-78 276,-72 282,-72"/>
<text text-anchor="middle" x="290.5" y="-90" font-family="Helvetica,sans-Serif" font-size="10.00">Sede</text>
<polyline fill="none" stroke="#378add" stroke-width="0.8" points="311,-72 311,-113 "/>
<text text-anchor="start" x="319" y="-101" font-family="Helvetica,sans-Serif" font-size="10.00">idSede</text>
<text text-anchor="start" x="319" y="-90" font-family="Helvetica,sans-Serif" font-size="10.00">nombre</text>
<text text-anchor="start" x="319" y="-79" font-family="Helvetica,sans-Serif" font-size="10.00">direccion</text>
</g>
<!-- Usuario&#45;&gt;Sede -->
<g id="edge2" class="edge">
<title>Usuario&#45;&gt;Sede</title>
<path fill="none" stroke="#5f5e5a" d="M161.25,-92.5C197.13,-92.5 238.4,-92.5 269.86,-92.5"/>
<text text-anchor="middle" x="190" y="-95.3" font-family="Helvetica,sans-Serif" font-size="9.00"> &#160;N:1</text>
</g>
<!-- Asistencia -->
<g id="node4" class="node">
<title>Asistencia</title>
<path fill="#e6f1fb" stroke="#378add" stroke-width="0.8" d="M261.5,-0.5C261.5,-0.5 380.5,-0.5 380.5,-0.5 386.5,-0.5 392.5,-6.5 392.5,-12.5 392.5,-12.5 392.5,-40.5 392.5,-40.5 392.5,-46.5 386.5,-52.5 380.5,-52.5 380.5,-52.5 261.5,-52.5 261.5,-52.5 255.5,-52.5 249.5,-46.5 249.5,-40.5 249.5,-40.5 249.5,-12.5 249.5,-12.5 249.5,-6.5 255.5,-0.5 261.5,-0.5"/>
<text text-anchor="middle" x="283" y="-24" font-family="Helvetica,sans-Serif" font-size="10.00">Asistencia</text>
<polyline fill="none" stroke="#378add" stroke-width="0.8" points="316.5,-0.5 316.5,-52.5 "/>
<text text-anchor="start" x="324.5" y="-40.5" font-family="Helvetica,sans-Serif" font-size="10.00">idAsistencia</text>
<text text-anchor="start" x="324.5" y="-29.5" font-family="Helvetica,sans-Serif" font-size="10.00">fecha</text>
<text text-anchor="start" x="324.5" y="-18.5" font-family="Helvetica,sans-Serif" font-size="10.00">horaEntrada</text>
<text text-anchor="start" x="324.5" y="-7.5" font-family="Helvetica,sans-Serif" font-size="10.00">horaSalida</text>
</g>
<!-- Usuario&#45;&gt;Asistencia -->
<g id="edge3" class="edge">
<title>Usuario&#45;&gt;Asistencia</title>
<path fill="none" stroke="#5f5e5a" d="M171.03,-67.72C196.84,-60.58 224.63,-52.89 249.14,-46.11"/>
<polygon fill="#5f5e5a" stroke="#5f5e5a" points="169.95,-64.39 161.25,-70.43 171.82,-71.14 169.95,-64.39"/>
<text text-anchor="middle" x="190" y="-68.3" font-family="Helvetica,sans-Serif" font-size="9.00"> &#160;1:N</text>
</g>
<!-- Venta -->
<g id="node7" class="node">
<title>Venta</title>
<path fill="#e6f1fb" stroke="#378add" stroke-width="0.8" d="M511.5,-117C511.5,-117 598.5,-117 598.5,-117 604.5,-117 610.5,-123 610.5,-129 610.5,-129 610.5,-146 610.5,-146 610.5,-152 604.5,-158 598.5,-158 598.5,-158 511.5,-158 511.5,-158 505.5,-158 499.5,-152 499.5,-146 499.5,-146 499.5,-129 499.5,-129 499.5,-123 505.5,-117 511.5,-117"/>
<text text-anchor="middle" x="521.5" y="-135" font-family="Helvetica,sans-Serif" font-size="10.00">Venta</text>
<polyline fill="none" stroke="#378add" stroke-width="0.8" points="543.5,-117 543.5,-158 "/>
<text text-anchor="start" x="551.5" y="-146" font-family="Helvetica,sans-Serif" font-size="10.00">idVenta</text>
<text text-anchor="start" x="551.5" y="-135" font-family="Helvetica,sans-Serif" font-size="10.00">fechaHora</text>
<text text-anchor="start" x="551.5" y="-124" font-family="Helvetica,sans-Serif" font-size="10.00">total</text>
</g>
<!-- Sede&#45;&gt;Venta -->
<g id="edge4" class="edge">
<title>Sede&#45;&gt;Venta</title>
<path fill="none" stroke="#5f5e5a" d="M381.99,-104.14C418.18,-111.16 463.95,-120.03 499.17,-126.86"/>
<polygon fill="#5f5e5a" stroke="#5f5e5a" points="382.54,-100.68 372.05,-102.21 381.21,-107.55 382.54,-100.68"/>
<text text-anchor="middle" x="452" y="-121.3" font-family="Helvetica,sans-Serif" font-size="9.00"> &#160;1:N</text>
</g>
<!-- Reserva -->
<g id="node9" class="node">
<title>Reserva</title>
<path fill="#e6f1fb" stroke="#378add" stroke-width="0.8" d="M493,-35C493,-35 617,-35 617,-35 623,-35 629,-41 629,-47 629,-47 629,-86 629,-86 629,-92 623,-98 617,-98 617,-98 493,-98 493,-98 487,-98 481,-92 481,-86 481,-86 481,-47 481,-47 481,-41 487,-35 493,-35"/>
<text text-anchor="middle" x="509" y="-64" font-family="Helvetica,sans-Serif" font-size="10.00">Reserva</text>
<polyline fill="none" stroke="#378add" stroke-width="0.8" points="537,-35 537,-98 "/>
<text text-anchor="start" x="545" y="-86" font-family="Helvetica,sans-Serif" font-size="10.00">idReserva</text>
<text text-anchor="start" x="545" y="-75" font-family="Helvetica,sans-Serif" font-size="10.00">nombreCliente</text>
<text text-anchor="start" x="545" y="-64" font-family="Helvetica,sans-Serif" font-size="10.00">telefonoCliente</text>
<text text-anchor="start" x="545" y="-53" font-family="Helvetica,sans-Serif" font-size="10.00">fechaHora</text>
<text text-anchor="start" x="545" y="-42" font-family="Helvetica,sans-Serif" font-size="10.00">estado</text>
</g>
<!-- Sede&#45;&gt;Reserva -->
<g id="edge5" class="edge">
<title>Sede&#45;&gt;Reserva</title>
<path fill="none" stroke="#5f5e5a" d="M382,-85.78C412.13,-82.4 448.9,-78.28 480.69,-74.72"/>
<polygon fill="#5f5e5a" stroke="#5f5e5a" points="381.6,-82.3 372.05,-86.89 382.38,-89.25 381.6,-82.3"/>
<text text-anchor="middle" x="452" y="-82.3" font-family="Helvetica,sans-Serif" font-size="9.00"> &#160;1:N</text>
</g>
<!-- Producto -->
<g id="node5" class="node">
<title>Producto</title>
<path fill="#e6f1fb" stroke="#378add" stroke-width="0.8" d="M946,-111.5C946,-111.5 1126,-111.5 1126,-111.5 1132,-111.5 1138,-117.5 1138,-123.5 1138,-123.5 1138,-151.5 1138,-151.5 1138,-157.5 1132,-163.5 1126,-163.5 1126,-163.5 946,-163.5 946,-163.5 940,-163.5 934,-157.5 934,-151.5 934,-151.5 934,-123.5 934,-123.5 934,-117.5 940,-111.5 946,-111.5"/>
<text text-anchor="middle" x="963.5" y="-135" font-family="Helvetica,sans-Serif" font-size="10.00">Producto</text>
<polyline fill="none" stroke="#378add" stroke-width="0.8" points="993,-111.5 993,-163.5 "/>
<text text-anchor="start" x="1001" y="-151.5" font-family="Helvetica,sans-Serif" font-size="10.00">idProducto</text>
<text text-anchor="start" x="1001" y="-140.5" font-family="Helvetica,sans-Serif" font-size="10.00">nombre</text>
<text text-anchor="start" x="1001" y="-129.5" font-family="Helvetica,sans-Serif" font-size="10.00">precio</text>
<text text-anchor="start" x="1001" y="-118.5" font-family="Helvetica,sans-Serif" font-size="10.00">cantidadInsumoPorUnidad</text>
</g>
<!-- Insumo -->
<g id="node6" class="node">
<title>Insumo</title>
<path fill="#e6f1fb" stroke="#378add" stroke-width="0.8" d="M1258,-111.5C1258,-111.5 1361,-111.5 1361,-111.5 1367,-111.5 1373,-117.5 1373,-123.5 1373,-123.5 1373,-151.5 1373,-151.5 1373,-157.5 1367,-163.5 1361,-163.5 1361,-163.5 1258,-163.5 1258,-163.5 1252,-163.5 1246,-157.5 1246,-151.5 1246,-151.5 1246,-123.5 1246,-123.5 1246,-117.5 1252,-111.5 1258,-111.5"/>
<text text-anchor="middle" x="1272.5" y="-135" font-family="Helvetica,sans-Serif" font-size="10.00">Insumo</text>
<polyline fill="none" stroke="#378add" stroke-width="0.8" points="1299,-111.5 1299,-163.5 "/>
<text text-anchor="start" x="1307" y="-151.5" font-family="Helvetica,sans-Serif" font-size="10.00">idInsumo</text>
<text text-anchor="start" x="1307" y="-140.5" font-family="Helvetica,sans-Serif" font-size="10.00">nombre</text>
<text text-anchor="start" x="1307" y="-129.5" font-family="Helvetica,sans-Serif" font-size="10.00">stockActual</text>
<text text-anchor="start" x="1307" y="-118.5" font-family="Helvetica,sans-Serif" font-size="10.00">stockMin</text>
</g>
<!-- Producto&#45;&gt;Insumo -->
<g id="edge8" class="edge">
<title>Producto&#45;&gt;Insumo</title>
<path fill="none" stroke="#5f5e5a" d="M1138.1,-137.5C1174.28,-137.5 1213.98,-137.5 1245.96,-137.5"/>
<text text-anchor="middle" x="1192" y="-150.3" font-family="Helvetica,sans-Serif" font-size="9.00"> &#160;N:1 (opcional)</text>
<text text-anchor="middle" x="1192" y="-140.3" font-family="Helvetica,sans-Serif" font-size="9.00">insumoPrincipal</text>
</g>
<!-- DetalleVenta -->
<g id="node8" class="node">
<title>DetalleVenta</title>
<path fill="#e6f1fb" stroke="#378add" stroke-width="0.8" d="M747,-119.5C747,-119.5 864,-119.5 864,-119.5 870,-119.5 876,-125.5 876,-131.5 876,-131.5 876,-143.5 876,-143.5 876,-149.5 870,-155.5 864,-155.5 864,-155.5 747,-155.5 747,-155.5 741,-155.5 735,-149.5 735,-143.5 735,-143.5 735,-131.5 735,-131.5 735,-125.5 741,-119.5 747,-119.5"/>
<text text-anchor="middle" x="775" y="-135" font-family="Helvetica,sans-Serif" font-size="10.00">DetalleVenta</text>
<polyline fill="none" stroke="#378add" stroke-width="0.8" points="815,-119.5 815,-155.5 "/>
<text text-anchor="start" x="823" y="-140.5" font-family="Helvetica,sans-Serif" font-size="10.00">idDetalle</text>
<text text-anchor="start" x="823" y="-129.5" font-family="Helvetica,sans-Serif" font-size="10.00">cantidad</text>
</g>
<!-- Venta&#45;&gt;DetalleVenta -->
<g id="edge6" class="edge">
<title>Venta&#45;&gt;DetalleVenta</title>
<path fill="none" stroke="#5f5e5a" d="M610.53,-137.5C647.11,-137.5 695.6,-137.5 734.95,-137.5"/>
<text text-anchor="middle" x="682" y="-140.3" font-family="Helvetica,sans-Serif" font-size="9.00"> &#160;1:N (cascade)</text>
</g>
<!-- DetalleVenta&#45;&gt;Producto -->
<g id="edge7" class="edge">
<title>DetalleVenta&#45;&gt;Producto</title>
<path fill="none" stroke="#5f5e5a" d="M876.3,-137.5C894.41,-137.5 914.29,-137.5 933.66,-137.5"/>
<text text-anchor="middle" x="905" y="-140.3" font-family="Helvetica,sans-Serif" font-size="9.00"> &#160;N:1</text>
</g>
</g>
</svg>
